<?xml version="1.0" standalone="no"?>
<!DOCTYPE svg PUBLIC "-//W3C//DTD SVG 20010904//EN"
 "http://www.w3.org/TR/2001/REC-SVG-20010904/DTD/svg10.dtd">
<svg version="1.0" xmlns="http://www.w3.org/2000/svg"
 width="700.000000pt" height="700.000000pt" viewBox="0 0 700.000000 700.000000"
 preserveAspectRatio="xMidYMid meet">
<metadata>
Created by potrace 1.14, written by Peter Selinger 2001-2017
</metadata>
<g transform="translate(0.000000,700.000000) scale(0.100000,-0.100000)"
fill="#000000" stroke="none">
<path d="M3565 5431 c-29 -4 -79 -23 -120 -46 -38 -21 -110 -59 -160 -85 -131
-67 -355 -208 -415 -260 -52 -45 -110 -121 -110 -143 0 -7 -11 -29 -25 -49
-29 -43 -85 -195 -85 -230 0 -13 -4 -28 -9 -33 -5 -6 -21 -59 -37 -120 -26
-98 -29 -125 -27 -250 2 -149 11 -427 16 -485 5 -54 42 -116 108 -180 l60 -57
-6 -49 c-6 -45 -4 -51 22 -75 15 -14 43 -32 60 -39 28 -11 37 -10 58 4 14 9
25 21 25 26 0 15 -30 40 -56 46 -22 6 -24 11 -24 71 0 69 -3 74 -80 132 -17
13 -44 50 -60 82 -28 55 -30 64 -29 172 l2 114 41 32 c40 32 128 93 351 246
61 41 135 93 165 115 30 22 64 47 76 55 30 22 354 44 354 24 0 -22 -121 -129
-146 -129 -24 0 -139 -103 -171 -153 l-24 -38 -65 6 c-110 12 -186 -32 -239
-138 -42 -83 -45 -132 -11 -197 25 -50 62 -76 121 -85 32 -6 45 -3 68 15 41
32 34 46 -24 54 -65 9 -94 36 -103 100 -6 41 -4 54 22 99 47 84 113 106 196
65 42 -20 46 -20 70 -4 14 9 26 24 26 34 0 9 15 39 33 66 24 37 61 69 147 127
87 59 124 91 152 131 28 40 45 55 70 60 18 3 35 5 37 2 2 -2 -1 -29 -8 -59 -7
-30 -10 -59 -6 -65 8 -12 49 -13 95 -1 19 5 65 12 102 16 l68 7 -16 -38 c-8
-20 -12 -40 -7 -45 4 -4 37 -9 73 -11 59 -3 65 -5 68 -26 5 -36 44 -45 167
-38 61 4 119 8 130 9 12 1 21 -5 23 -18 2 -11 13 -44 24 -73 22 -60 48 -76 97
-62 38 11 39 2 5 -50 -45 -68 -20 -82 111 -59 33 5 107 16 165 24 236 32 375
68 470 123 80 47 116 96 129 177 9 54 8 64 -14 108 -37 73 -71 111 -123 140
-90 49 -148 58 -402 63 -129 3 -240 7 -246 9 -7 2 -14 18 -17 37 -24 154 -97
332 -183 445 -40 53 -170 173 -224 207 -56 36 -228 102 -310 119 -163 34 -306
43 -425 28z m715 -984 c52 -13 113 -34 135 -45 22 -12 45 -22 51 -22 45 0 197
-93 237 -144 40 -52 35 -88 -16 -100 -53 -13 -68 -1 -93 75 -19 58 -24 64 -53
70 -18 4 -63 3 -99 -2 -37 -4 -89 -8 -115 -9 -43 0 -48 2 -42 19 8 25 -15 38
-83 47 l-51 6 24 33 c39 50 34 65 -22 65 -27 0 -88 -7 -138 -15 -135 -22 -142
-20 -109 30 16 25 17 25 148 21 94 -3 158 -11 226 -29z"/>
<path d="M3751 4111 c-26 -16 5 -39 62 -45 97 -12 182 -28 230 -43 52 -16 77
-12 77 11 0 23 -45 42 -157 65 -108 22 -189 27 -212 12z"/>
<path d="M4351 3989 l-24 -9 22 -24 c16 -17 37 -25 74 -29 29 -3 69 -13 90
-23 33 -16 39 -16 53 -3 25 26 6 48 -55 64 -31 9 -70 20 -87 25 -36 12 -42 12
-73 -1z"/>
<path d="M3908 3969 c-39 -22 -30 -121 12 -134 43 -14 80 49 59 102 -16 42
-38 52 -71 32z"/>
<path d="M4223 3924 c-7 -3 -17 -22 -24 -42 -6 -20 -20 -49 -30 -64 -11 -14
-19 -32 -19 -40 0 -8 -7 -23 -15 -34 -22 -29 -18 -65 15 -135 38 -83 48 -129
27 -129 -22 0 -77 -49 -77 -69 0 -9 6 -25 13 -34 11 -15 18 -13 87 21 56 28
76 43 78 60 3 20 -35 119 -74 194 -20 37 -19 40 27 135 50 107 47 160 -8 137z"/>
<path d="M4310 3840 c-40 -40 -17 -130 32 -130 16 0 42 26 51 52 9 24 -11 76
-33 88 -25 13 -27 13 -50 -10z"/>
<path d="M3105 3607 c-15 -12 -17 -22 -11 -63 23 -145 13 -190 -58 -282 -65
-85 -118 -130 -163 -137 -129 -19 -345 -90 -453 -148 -174 -93 -248 -144 -383
-261 -126 -110 -316 -367 -391 -532 -61 -130 -62 -135 -90 -254 -15 -63 -32
-131 -37 -150 -5 -19 -10 -78 -11 -130 l-3 -95 26 -3 c37 -4 52 20 55 93 3 71
18 164 39 240 7 28 20 81 29 118 9 38 24 81 34 95 10 15 31 60 47 100 15 40
34 77 42 83 7 6 13 20 13 30 0 10 5 21 10 24 6 3 28 32 50 63 116 165 168 218
379 389 86 70 270 162 437 218 154 52 148 53 180 -23 71 -163 287 -304 487
-319 66 -5 80 -3 97 12 42 38 26 49 -80 59 -112 10 -202 51 -317 144 -46 37
-123 144 -123 171 0 9 21 28 48 43 53 31 96 73 137 136 15 23 31 42 34 42 4 0
18 19 31 42 18 33 23 58 25 122 0 45 -2 92 -7 106 -4 14 -10 37 -13 53 -6 30
-29 36 -60 14z"/>
<path d="M4238 3278 c-9 -7 -33 -44 -54 -83 -46 -88 -98 -142 -146 -157 -55
-16 -227 9 -305 45 -60 27 -118 -50 -187 -250 -20 -57 -4 -109 38 -127 17 -8
48 -26 68 -42 21 -16 59 -45 85 -64 109 -80 262 -258 379 -440 55 -85 154
-294 161 -336 3 -22 11 -48 16 -59 11 -20 21 -73 33 -167 6 -42 10 -48 30 -48
34 0 55 27 50 63 -3 18 -8 57 -11 87 -12 105 -67 259 -139 389 -72 129 -87
153 -110 185 -13 17 -26 39 -29 49 -4 9 -10 17 -15 17 -5 0 -32 30 -60 68
-103 138 -302 316 -409 365 -26 12 -24 34 13 107 12 25 25 59 29 77 9 45 24
55 66 43 54 -16 206 -41 254 -42 48 -1 96 23 154 76 51 47 153 203 149 229 -4
26 -35 34 -60 15z"/>
<path d="M3864 3246 c-8 -34 1 -45 54 -68 38 -17 48 -18 68 -7 40 21 31 51
-25 77 -64 29 -89 29 -97 -2z"/>
</g>
</svg>
